<svg width="103" height="32" viewBox="0 0 103 32" fill="none" xmlns="http://www.w3.org/2000/svg">
<path d="M54.3373 8.04048C54.3373 9.19374 53.408 10.1224 52.2548 10.1224C51.1015 10.1224 50.1729 9.19374 50.1729 8.04048C50.1729 6.88723 51.0698 5.9586 52.2548 5.9586C53.4407 5.9906 54.3373 6.91955 54.3373 8.04048ZM45.7525 12.2369V12.7495C45.7525 12.7495 44.7599 11.4676 42.6457 11.4676C39.1546 11.4676 36.4314 14.1264 36.4314 17.8099C36.4314 21.4617 39.1226 24.1522 42.6457 24.1522C44.7919 24.1522 45.7525 22.8389 45.7525 22.8389V23.3832C45.7525 23.6395 45.9451 23.8312 46.2011 23.8312H48.7953V11.787H46.2011C45.9451 11.7879 45.7525 12.0126 45.7525 12.2369ZM45.7525 19.9561C45.2725 20.661 44.3112 21.2697 43.1583 21.2697C41.1084 21.2697 39.5385 19.9884 39.5385 17.8099C39.5385 15.6317 41.1084 14.3504 43.1583 14.3504C44.2796 14.3504 45.3045 14.9911 45.7525 15.6637V19.9561ZM50.7175 11.7879H53.7923V23.8322H50.7175V11.7879ZM96.651 11.4673C94.5368 11.4673 93.5435 12.7492 93.5435 12.7492V5.9906H90.4687V23.8322H93.0635C93.3199 23.8322 93.5115 23.6078 93.5115 23.3835V22.8392C93.5115 22.8392 94.5048 24.1525 96.6184 24.1525C100.11 24.1525 102.833 21.4626 102.833 17.8108C102.833 14.1591 100.11 11.4673 96.651 11.4673ZM96.1384 21.2373C94.9528 21.2373 94.0242 20.6293 93.5435 19.9241V15.6317C94.0242 14.9911 95.0491 14.3184 96.1384 14.3184C98.1882 14.3184 99.7578 15.5997 99.7578 17.7779C99.7578 19.9561 98.1886 21.2373 96.1384 21.2373ZM88.8675 16.6893V23.8642H85.792V17.0413C85.792 15.0557 85.1514 14.2544 83.4228 14.2544C82.4942 14.2544 81.5329 14.7351 80.9233 15.44V23.8325H77.8491V11.7882H80.2827C80.539 11.7882 80.7313 12.0126 80.7313 12.2369V12.7495C81.6283 11.8202 82.8132 11.4676 83.9981 11.4676C85.3437 11.4676 86.465 11.8526 87.3619 12.6212C88.4505 13.5181 88.8675 14.6711 88.8675 16.6893ZM70.3846 11.4673C68.2711 11.4673 67.2778 12.7492 67.2778 12.7492V5.9906H64.203V23.8322H66.7972C67.0535 23.8322 67.2458 23.6078 67.2458 23.3835V22.8392C67.2458 22.8392 68.2391 24.1525 70.3526 24.1525C73.8444 24.1525 76.5669 21.4626 76.5669 17.8108C76.5989 14.1588 73.8764 11.4673 70.3846 11.4673ZM69.872 21.2373C68.6871 21.2373 67.7585 20.6293 67.2778 19.9241V15.6317C67.7585 14.9911 68.7834 14.3184 69.872 14.3184C71.9225 14.3184 73.4918 15.5997 73.4918 17.7779C73.4918 19.9561 71.9225 21.2373 69.872 21.2373ZM61.5442 11.4673C62.4728 11.4673 62.9534 11.6279 62.9534 11.6279V14.4784C62.9534 14.4784 60.3909 13.6135 58.7897 15.4397V23.8638H55.7142V11.7879H58.3091C58.5654 11.7879 58.757 12.0122 58.757 12.2366V12.7492C59.3343 12.0762 60.5836 11.4673 61.5442 11.4673ZM29.6091 22.7429C29.4491 22.3586 29.2888 21.9423 29.1288 21.5897C28.8722 21.0133 28.6159 20.4684 28.3922 19.9561L28.3602 19.9241C26.1497 15.1191 23.7798 10.2507 21.281 5.4463L21.185 5.25365C20.9222 4.75525 20.6661 4.25336 20.4167 3.74809C20.0961 3.17114 19.7761 2.56315 19.2634 1.9862C18.2385 0.704946 16.7649 0 15.1957 0C13.5938 0 12.1525 0.70495 11.0959 1.92189C10.6153 2.49819 10.2627 3.10683 9.94266 3.68377C9.69267 4.18872 9.43655 4.69061 9.17436 5.18934L9.07804 5.38197C6.61153 10.1864 4.20934 15.0551 1.99914 19.8598L1.96683 19.9234C1.74283 20.4367 1.4862 20.981 1.22988 21.557C1.06988 21.9096 0.909888 22.294 0.749891 22.7103C0.33326 23.8952 0.204936 25.0165 0.365573 26.17C0.717886 28.5726 2.31913 30.5898 4.52965 31.4874C5.36259 31.84 6.22754 32 7.12416 32C7.38047 32 7.70047 31.968 7.95711 31.9357C9.01437 31.8077 10.1033 31.4557 11.1606 30.8471C12.4738 30.1101 13.7231 29.0535 15.1323 27.5159C16.5416 29.0535 17.8228 30.1101 19.1041 30.8471C20.1617 31.4557 21.2503 31.8077 22.3072 31.9357C22.5635 31.9683 22.8842 32 23.1405 32C24.0374 32 24.934 31.84 25.7347 31.4874C27.9772 30.5898 29.5464 28.5406 29.8991 26.17C30.1535 25.0491 30.0255 23.9285 29.6091 22.7429ZM15.1634 24.4085C13.4335 22.2303 12.3122 20.1804 11.9282 18.4512C11.7682 17.7142 11.7359 17.0736 11.8322 16.497C11.8959 15.9843 12.0885 15.5357 12.3449 15.1514C12.9535 14.2871 13.9784 13.7421 15.1637 13.7421C16.3493 13.7421 17.4062 14.2548 17.9828 15.1514C18.2391 15.5357 18.4311 15.9846 18.4958 16.497C18.5915 17.0739 18.5595 17.7462 18.3995 18.4512C18.0139 20.1484 16.8926 22.1986 15.1634 24.4085ZM27.9433 25.914C27.7193 27.5796 26.598 29.0215 25.0288 29.6621C24.2601 29.9821 23.4269 30.0784 22.5946 29.9821C21.7939 29.8858 20.9927 29.6295 20.1604 29.1495C19.0071 28.5082 17.8542 27.5159 16.5086 26.042C18.6225 23.4478 19.9037 21.077 20.3844 18.9635C20.6087 17.9702 20.641 17.0736 20.5444 16.2403C20.4167 15.4397 20.1281 14.7027 19.6797 14.0621C18.6862 12.6202 17.0203 11.7879 15.163 11.7879C13.3058 11.7879 11.6399 12.6529 10.647 14.0621C10.1987 14.7027 9.91002 15.4397 9.78202 16.2403C9.65403 17.0736 9.68571 18.0022 9.94202 18.9635C10.4223 21.077 11.7356 23.4795 13.8175 26.074C12.5042 27.5476 11.319 28.5409 10.1657 29.1815C9.33275 29.6621 8.53245 29.9184 7.73183 30.0141C6.86721 30.1104 6.03394 29.9821 5.29732 29.6941C3.72807 29.0535 2.60681 27.6116 2.38282 25.946C2.28682 25.1454 2.3505 24.3448 2.67113 23.4478C2.76681 23.1272 2.92744 22.8072 3.08744 22.4229C3.31176 21.9103 3.56743 21.3653 3.82407 20.821L3.85639 20.7573C6.06627 15.9843 8.43646 11.1156 10.903 6.37523L10.999 6.1826C11.2556 5.70261 11.5119 5.18998 11.7679 4.70935C12.0242 4.19672 12.3122 3.71609 12.6648 3.29945C13.3375 2.53147 14.2341 2.11452 15.2274 2.11452C16.2206 2.11452 17.1172 2.53147 17.7899 3.29945C18.1425 3.71705 18.4305 4.19768 18.6868 4.70935C18.9434 5.18998 19.1998 5.70261 19.4554 6.1826L19.5517 6.37523C21.9806 11.1353 24.3194 15.9409 26.5666 20.7893V20.8213C26.8233 21.3346 27.0473 21.9106 27.3036 22.4239C27.4636 22.8075 27.6239 23.1275 27.7199 23.4482C27.9756 24.2802 28.0716 25.0814 27.9433 25.914Z" fill="#191825" fill-opacity="0.5"/>
</svg>
