<svg width="65" height="170" viewBox="0 0 65 170" fill="none" xmlns="http://www.w3.org/2000/svg">
<g clip-path="url(#clip0_1156_720)">
<path d="M44.0254 169.949L65 169.949L54.5127 159.462L44.0254 169.949Z" fill="#FF5722"/>
<path d="M44.0254 134.41L65 134.41L54.5127 123.923L44.0254 134.41Z" fill="#FF5722"/>
<path d="M44.0254 98.8555L65 98.8555L54.5127 88.3682L44.0254 98.8555Z" fill="#FF5722"/>
<path d="M44.0254 63.3164L65 63.3164L54.5127 52.8291L44.0254 63.3164Z" fill="#FF5722"/>
<path d="M44.0254 27.7813L65 27.7812L54.5127 17.2788L44.0254 27.7813Z" fill="#FF5722"/>
<path d="M0.000263214 152.672L20.9749 152.672L10.4876 142.185L0.000263214 152.672Z" fill="#FF5722"/>
<path d="M1.90735e-05 117.117L20.9746 117.117L10.4873 106.63L1.90735e-05 117.117Z" fill="#FF5722"/>
<path d="M1.90735e-05 81.5781L20.9746 81.5781L10.4873 71.0908L1.90735e-05 81.5781Z" fill="#FF5722"/>
<path d="M1.90735e-05 46.0391L20.9746 46.0391L10.4873 35.5518L1.90735e-05 46.0391Z" fill="#FF5722"/>
<path d="M1.90735e-05 10.4883L20.9746 10.4883L10.4873 0.000989877L1.90735e-05 10.4883Z" fill="#FF5722"/>
</g>
<defs>
<clipPath id="clip0_1156_720">
<rect width="65" height="169.949" fill="white" transform="translate(65 169.949) rotate(180)"/>
</clipPath>
</defs>
</svg>
