<svg width="48" height="48" viewBox="0 0 48 48" fill="none" xmlns="http://www.w3.org/2000/svg">
<path fill-rule="evenodd" clip-rule="evenodd" d="M7 20.6356C7 11.4358 14.6878 4 23.9868 4C33.3122 4 41 11.4358 41 20.6356C41 25.2714 39.314 29.5752 36.539 33.2232C33.4776 37.247 29.7044 40.753 25.457 43.5048C24.485 44.1408 23.6078 44.1888 22.5408 43.5048C18.2695 40.753 14.4962 37.247 11.461 33.2232C8.68396 29.5752 7 25.2714 7 20.6356ZM18.3885 21.1536C18.3885 24.2354 20.9034 26.6594 23.9868 26.6594C27.0724 26.6594 29.6116 24.2354 29.6116 21.1536C29.6116 18.0956 27.0724 15.5537 23.9868 15.5537C20.9034 15.5537 18.3885 18.0956 18.3885 21.1536Z" fill="white"/>
</svg>
