<svg width="224" height="33" viewBox="0 0 224 33" fill="none" xmlns="http://www.w3.org/2000/svg">
<path d="M23.8912 19.4729C23.5459 19.8075 23.3872 20.2915 23.4659 20.7662L24.6512 27.3262C24.7512 27.8822 24.5165 28.4449 24.0512 28.7662C23.5952 29.0995 22.9885 29.1395 22.4912 28.8729L16.5859 25.7929C16.3805 25.6835 16.1525 25.6249 15.9192 25.6182H15.5579C15.4325 25.6369 15.3099 25.6769 15.1979 25.7382L9.29118 28.8329C8.99918 28.9795 8.66852 29.0315 8.34452 28.9795C7.55518 28.8302 7.02852 28.0782 7.15785 27.2849L8.34452 20.7249C8.42318 20.2462 8.26452 19.7595 7.91918 19.4195L3.10452 14.7529C2.70185 14.3622 2.56185 13.7755 2.74585 13.2462C2.92452 12.7182 3.38052 12.3329 3.93118 12.2462L10.5578 11.2849C11.0619 11.2329 11.5045 10.9262 11.7312 10.4729L14.6512 4.48622C14.7205 4.35289 14.8099 4.23022 14.9179 4.12622L15.0379 4.03289C15.1005 3.96356 15.1725 3.90622 15.2525 3.85956L15.3979 3.80622L15.6245 3.71289H16.1859C16.6872 3.76489 17.1285 4.06489 17.3592 4.51289L20.3179 10.4729C20.5312 10.9089 20.9459 11.2116 21.4245 11.2849L28.0512 12.2462C28.6112 12.3262 29.0792 12.7129 29.2645 13.2462C29.4392 13.7809 29.2885 14.3675 28.8779 14.7529L23.8912 19.4729Z" fill="#FACD49"/>
<path d="M71.8912 19.4729C71.5459 19.8075 71.3872 20.2915 71.4659 20.7662L72.6512 27.3262C72.7512 27.8822 72.5165 28.4449 72.0512 28.7662C71.5952 29.0995 70.9885 29.1395 70.4912 28.8729L64.5859 25.7929C64.3805 25.6835 64.1525 25.6249 63.9192 25.6182H63.5579C63.4325 25.6369 63.3099 25.6769 63.1979 25.7382L57.2912 28.8329C56.9992 28.9795 56.6685 29.0315 56.3445 28.9795C55.5552 28.8302 55.0285 28.0782 55.1579 27.2849L56.3445 20.7249C56.4232 20.2462 56.2645 19.7595 55.9192 19.4195L51.1045 14.7529C50.7018 14.3622 50.5619 13.7755 50.7459 13.2462C50.9245 12.7182 51.3805 12.3329 51.9312 12.2462L58.5578 11.2849C59.0619 11.2329 59.5045 10.9262 59.7312 10.4729L62.6512 4.48622C62.7205 4.35289 62.8099 4.23022 62.9179 4.12622L63.0379 4.03289C63.1005 3.96356 63.1725 3.90622 63.2525 3.85956L63.3979 3.80622L63.6245 3.71289H64.1859C64.6872 3.76489 65.1285 4.06489 65.3592 4.51289L68.3179 10.4729C68.5312 10.9089 68.9459 11.2116 69.4245 11.2849L76.0512 12.2462C76.6112 12.3262 77.0792 12.7129 77.2645 13.2462C77.4392 13.7809 77.2885 14.3675 76.8779 14.7529L71.8912 19.4729Z" fill="#FACD49"/>
<path d="M119.891 19.4729C119.546 19.8075 119.387 20.2915 119.466 20.7662L120.651 27.3262C120.751 27.8822 120.517 28.4449 120.051 28.7662C119.595 29.0995 118.989 29.1395 118.491 28.8729L112.586 25.7929C112.381 25.6835 112.153 25.6249 111.919 25.6182H111.558C111.433 25.6369 111.31 25.6769 111.198 25.7382L105.291 28.8329C104.999 28.9795 104.669 29.0315 104.345 28.9795C103.555 28.8302 103.029 28.0782 103.158 27.2849L104.345 20.7249C104.423 20.2462 104.265 19.7595 103.919 19.4195L99.1045 14.7529C98.7018 14.3622 98.5619 13.7755 98.7459 13.2462C98.9245 12.7182 99.3805 12.3329 99.9312 12.2462L106.558 11.2849C107.062 11.2329 107.505 10.9262 107.731 10.4729L110.651 4.48622C110.721 4.35289 110.81 4.23022 110.918 4.12622L111.038 4.03289C111.101 3.96356 111.173 3.90622 111.253 3.85956L111.398 3.80622L111.625 3.71289H112.186C112.687 3.76489 113.129 4.06489 113.359 4.51289L116.318 10.4729C116.531 10.9089 116.946 11.2116 117.425 11.2849L124.051 12.2462C124.611 12.3262 125.079 12.7129 125.265 13.2462C125.439 13.7809 125.289 14.3675 124.878 14.7529L119.891 19.4729Z" fill="#FACD49"/>
<path d="M167.891 19.4729C167.546 19.8075 167.387 20.2915 167.466 20.7662L168.651 27.3262C168.751 27.8822 168.517 28.4449 168.051 28.7662C167.595 29.0995 166.989 29.1395 166.491 28.8729L160.586 25.7929C160.381 25.6835 160.153 25.6249 159.919 25.6182H159.558C159.433 25.6369 159.31 25.6769 159.198 25.7382L153.291 28.8329C152.999 28.9795 152.669 29.0315 152.345 28.9795C151.555 28.8302 151.029 28.0782 151.158 27.2849L152.345 20.7249C152.423 20.2462 152.265 19.7595 151.919 19.4195L147.105 14.7529C146.702 14.3622 146.562 13.7755 146.746 13.2462C146.925 12.7182 147.381 12.3329 147.931 12.2462L154.558 11.2849C155.062 11.2329 155.505 10.9262 155.731 10.4729L158.651 4.48622C158.721 4.35289 158.81 4.23022 158.918 4.12622L159.038 4.03289C159.101 3.96356 159.173 3.90622 159.253 3.85956L159.398 3.80622L159.625 3.71289H160.186C160.687 3.76489 161.129 4.06489 161.359 4.51289L164.318 10.4729C164.531 10.9089 164.946 11.2116 165.425 11.2849L172.051 12.2462C172.611 12.3262 173.079 12.7129 173.265 13.2462C173.439 13.7809 173.289 14.3675 172.878 14.7529L167.891 19.4729Z" fill="#FACD49"/>
<path d="M215.891 19.4729C215.546 19.8075 215.387 20.2915 215.466 20.7662L216.651 27.3262C216.751 27.8822 216.517 28.4449 216.051 28.7662C215.595 29.0995 214.989 29.1395 214.491 28.8729L208.586 25.7929C208.381 25.6835 208.153 25.6249 207.919 25.6182H207.558C207.433 25.6369 207.31 25.6769 207.198 25.7382L201.291 28.8329C200.999 28.9795 200.669 29.0315 200.345 28.9795C199.555 28.8302 199.029 28.0782 199.158 27.2849L200.345 20.7249C200.423 20.2462 200.265 19.7595 199.919 19.4195L195.105 14.7529C194.702 14.3622 194.562 13.7755 194.746 13.2462C194.925 12.7182 195.381 12.3329 195.931 12.2462L202.558 11.2849C203.062 11.2329 203.505 10.9262 203.731 10.4729L206.651 4.48622C206.721 4.35289 206.81 4.23022 206.918 4.12622L207.038 4.03289C207.101 3.96356 207.173 3.90622 207.253 3.85956L207.398 3.80622L207.625 3.71289H208.186C208.687 3.76489 209.129 4.06489 209.359 4.51289L212.318 10.4729C212.531 10.9089 212.946 11.2116 213.425 11.2849L220.051 12.2462C220.611 12.3262 221.079 12.7129 221.265 13.2462C221.439 13.7809 221.289 14.3675 220.878 14.7529L215.891 19.4729Z" fill="#FACD49"/>
</svg>
