<svg width="184" height="177" viewBox="0 0 184 177" fill="none" xmlns="http://www.w3.org/2000/svg">
<g clip-path="url(#clip0_1156_1078)">
<path d="M4.83998 128.32C3.39998 128.32 2.22998 129.5 2.22998 130.95C2.22998 132.4 3.39998 133.58 4.83998 133.58C6.27998 133.58 7.44998 132.4 7.44998 130.95C7.44998 129.5 6.27998 128.32 4.83998 128.32Z" fill="#FF5722"/>
<path d="M49.5 133.58C50.9415 133.58 52.11 132.403 52.11 130.95C52.11 129.498 50.9415 128.32 49.5 128.32C48.0586 128.32 46.89 129.498 46.89 130.95C46.89 132.403 48.0586 133.58 49.5 133.58Z" fill="#FF5722"/>
<path d="M27.1701 128.32C25.7301 128.32 24.5601 129.5 24.5601 130.95C24.5601 132.4 25.7301 133.58 27.1701 133.58C28.6101 133.58 29.7801 132.4 29.7801 130.95C29.7801 129.5 28.6101 128.32 27.1701 128.32Z" fill="#FF5722"/>
<path d="M26.7999 106.941C25.3599 106.941 24.1899 108.121 24.1899 109.571C24.1899 111.021 25.3599 112.201 26.7999 112.201C28.2399 112.201 29.4099 111.021 29.4099 109.571C29.4099 108.121 28.2399 106.941 26.7999 106.941Z" fill="#FF5722"/>
<path d="M4.46999 106.941C3.02998 106.941 1.85999 108.121 1.85999 109.571C1.85999 111.021 3.02998 112.201 4.46999 112.201C5.90999 112.201 7.07999 111.021 7.07999 109.571C7.07999 108.121 5.90999 106.941 4.46999 106.941Z" fill="#FF5722"/>
<path d="M71.46 106.941C70.02 106.941 68.85 108.121 68.85 109.571C68.85 111.021 70.02 112.201 71.46 112.201C72.9 112.201 74.07 111.021 74.07 109.571C74.07 108.121 72.9 106.941 71.46 106.941Z" fill="#FF5722"/>
<path d="M49.13 106.941C47.69 106.941 46.52 108.121 46.52 109.571C46.52 111.021 47.69 112.201 49.13 112.201C50.57 112.201 51.74 111.021 51.74 109.571C51.74 108.121 50.57 106.941 49.13 106.941Z" fill="#FF5722"/>
<path d="M4.83998 171.102C3.39998 171.102 2.22998 172.282 2.22998 173.732C2.22998 175.182 3.39998 176.362 4.83998 176.362C6.27998 176.362 7.44998 175.182 7.44998 173.732C7.44998 172.282 6.27998 171.102 4.83998 171.102Z" fill="#FF5722"/>
<path d="M26.7999 149.711C25.3599 149.711 24.1899 150.891 24.1899 152.341C24.1899 153.791 25.3599 154.971 26.7999 154.971C28.2399 154.971 29.4099 153.791 29.4099 152.341C29.4099 150.891 28.2399 149.711 26.7999 149.711Z" fill="#FF5722"/>
<path d="M4.46999 149.711C3.02998 149.711 1.85999 150.891 1.85999 152.341C1.85999 153.791 3.02998 154.971 4.46999 154.971C5.90999 154.971 7.07999 153.791 7.07999 152.341C7.07999 150.891 5.90999 149.711 4.46999 149.711Z" fill="#FF5722"/>
<path d="M93.4201 85.5508C91.9801 85.5508 90.8101 86.7308 90.8101 88.1808C90.8101 89.6308 91.9801 90.8108 93.4201 90.8108C94.8601 90.8108 96.0301 89.6308 96.0301 88.1808C96.0301 86.7308 94.8601 85.5508 93.4201 85.5508Z" fill="#FF5722"/>
<path d="M48.76 85.5508C47.32 85.5508 46.15 86.7308 46.15 88.1808C46.15 89.6308 47.32 90.8108 48.76 90.8108C50.2 90.8108 51.37 89.6308 51.37 88.1808C51.37 86.7308 50.2 85.5508 48.76 85.5508Z" fill="#FF5722"/>
<path d="M71.09 90.8108C72.5314 90.8108 73.7 89.6333 73.7 88.1808C73.7 86.7283 72.5314 85.5508 71.09 85.5508C69.6485 85.5508 68.48 86.7283 68.48 88.1808C68.48 89.6333 69.6485 90.8108 71.09 90.8108Z" fill="#FF5722"/>
<path d="M26.4201 85.5508C24.9801 85.5508 23.8101 86.7308 23.8101 88.1808C23.8101 89.6308 24.9801 90.8108 26.4201 90.8108C27.8601 90.8108 29.0301 89.6308 29.0301 88.1808C29.0301 86.7308 27.8701 85.5508 26.4201 85.5508Z" fill="#FF5722"/>
<path d="M4.08998 85.5508C2.64998 85.5508 1.47998 86.7308 1.47998 88.1808C1.47998 89.6308 2.64998 90.8108 4.08998 90.8108C5.52998 90.8108 6.69998 89.6308 6.69998 88.1808C6.69998 86.7308 5.52998 85.5508 4.08998 85.5508Z" fill="#FF5722"/>
<path d="M93.0401 64.1602C91.6001 64.1602 90.4301 65.3402 90.4301 66.7902C90.4301 68.2402 91.6001 69.4202 93.0401 69.4202C94.4801 69.4202 95.6501 68.2402 95.6501 66.7902C95.6501 65.3402 94.4801 64.1602 93.0401 64.1602Z" fill="#FF5722"/>
<path d="M70.71 64.1602C69.27 64.1602 68.1 65.3402 68.1 66.7902C68.1 68.2402 69.27 69.4202 70.71 69.4202C72.15 69.4202 73.32 68.2402 73.32 66.7902C73.32 65.3402 72.15 64.1602 70.71 64.1602Z" fill="#FF5722"/>
<path d="M48.38 64.1602C46.94 64.1602 45.77 65.3402 45.77 66.7902C45.77 68.2402 46.94 69.4202 48.38 69.4202C49.82 69.4202 50.99 68.2402 50.99 66.7902C50.99 65.3402 49.82 64.1602 48.38 64.1602Z" fill="#FF5722"/>
<path d="M115.38 64.1602C113.94 64.1602 112.77 65.3402 112.77 66.7902C112.77 68.2402 113.94 69.4202 115.38 69.4202C116.82 69.4202 117.99 68.2402 117.99 66.7902C117.99 65.3402 116.82 64.1602 115.38 64.1602Z" fill="#FF5722"/>
<path d="M3.71999 64.1602C2.27999 64.1602 1.10999 65.3402 1.10999 66.7902C1.10999 68.2402 2.27999 69.4202 3.71999 69.4202C5.15999 69.4202 6.32999 68.2402 6.32999 66.7902C6.32999 65.3402 5.15999 64.1602 3.71999 64.1602Z" fill="#FF5722"/>
<path d="M26.0499 64.1602C24.6099 64.1602 23.4399 65.3402 23.4399 66.7902C23.4399 68.2402 24.6099 69.4202 26.0499 69.4202C27.4899 69.4202 28.6599 68.2402 28.6599 66.7902C28.6599 65.3402 27.4899 64.1602 26.0499 64.1602Z" fill="#FF5722"/>
<path d="M3.34999 42.7695C1.90999 42.7695 0.73999 43.9495 0.73999 45.3995C0.73999 46.8495 1.90999 48.0295 3.34999 48.0295C4.78999 48.0295 5.95999 46.8495 5.95999 45.3995C5.95999 43.9495 4.78999 42.7695 3.34999 42.7695Z" fill="#FF5722"/>
<path d="M92.6701 48.0295C94.1115 48.0295 95.2801 46.852 95.2801 45.3995C95.2801 43.947 94.1115 42.7695 92.6701 42.7695C91.2286 42.7695 90.0601 43.947 90.0601 45.3995C90.0601 46.852 91.2286 48.0295 92.6701 48.0295Z" fill="#FF5722"/>
<path d="M137.33 48.0295C138.771 48.0295 139.94 46.852 139.94 45.3995C139.94 43.947 138.771 42.7695 137.33 42.7695C135.889 42.7695 134.72 43.947 134.72 45.3995C134.72 46.852 135.889 48.0295 137.33 48.0295Z" fill="#FF5722"/>
<path d="M70.34 42.7695C68.9 42.7695 67.73 43.9495 67.73 45.3995C67.73 46.8495 68.9 48.0295 70.34 48.0295C71.78 48.0295 72.95 46.8495 72.95 45.3995C72.95 43.9495 71.78 42.7695 70.34 42.7695Z" fill="#FF5722"/>
<path d="M48.01 42.7695C46.57 42.7695 45.4 43.9495 45.4 45.3995C45.4 46.8495 46.57 48.0295 48.01 48.0295C49.45 48.0295 50.62 46.8495 50.62 45.3995C50.62 43.9495 49.45 42.7695 48.01 42.7695Z" fill="#FF5722"/>
<path d="M25.6799 42.7695C24.2399 42.7695 23.0699 43.9495 23.0699 45.3995C23.0699 46.8495 24.2399 48.0295 25.6799 48.0295C27.1199 48.0295 28.2899 46.8495 28.2899 45.3995C28.2899 43.9495 27.1199 42.7695 25.6799 42.7695Z" fill="#FF5722"/>
<path d="M115 42.7695C113.56 42.7695 112.39 43.9495 112.39 45.3995C112.39 46.8495 113.56 48.0295 115 48.0295C116.44 48.0295 117.61 46.8495 117.61 45.3995C117.61 43.9495 116.44 42.7695 115 42.7695Z" fill="#FF5722"/>
<path d="M2.98 26.6389C4.42146 26.6389 5.59 25.4614 5.59 24.0089C5.59 22.5564 4.42146 21.3789 2.98 21.3789C1.53853 21.3789 0.369995 22.5564 0.369995 24.0089C0.369995 25.4614 1.53853 26.6389 2.98 26.6389Z" fill="#FF5722"/>
<path d="M114.63 21.3906C113.19 21.3906 112.02 22.5706 112.02 24.0206C112.02 25.4706 113.19 26.6506 114.63 26.6506C116.07 26.6506 117.24 25.4706 117.24 24.0206C117.24 22.5706 116.07 21.3906 114.63 21.3906Z" fill="#FF5722"/>
<path d="M25.3099 21.3906C23.8699 21.3906 22.7 22.5706 22.7 24.0206C22.7 25.4706 23.8699 26.6506 25.3099 26.6506C26.7499 26.6506 27.92 25.4706 27.92 24.0206C27.92 22.5706 26.7499 21.3906 25.3099 21.3906Z" fill="#FF5722"/>
<path d="M69.97 21.3906C68.53 21.3906 67.36 22.5706 67.36 24.0206C67.36 25.4706 68.53 26.6506 69.97 26.6506C71.41 26.6506 72.58 25.4706 72.58 24.0206C72.58 22.5706 71.41 21.3906 69.97 21.3906Z" fill="#FF5722"/>
<path d="M47.64 21.3906C46.2 21.3906 45.03 22.5706 45.03 24.0206C45.03 25.4706 46.2 26.6506 47.64 26.6506C49.08 26.6506 50.25 25.4706 50.25 24.0206C50.25 22.5706 49.08 21.3906 47.64 21.3906Z" fill="#FF5722"/>
<path d="M92.2999 21.3906C90.8599 21.3906 89.6899 22.5706 89.6899 24.0206C89.6899 25.4706 90.8599 26.6506 92.2999 26.6506C93.7399 26.6506 94.9099 25.4706 94.9099 24.0206C94.9099 22.5706 93.7399 21.3906 92.2999 21.3906Z" fill="#FF5722"/>
<path d="M159.29 21.3906C157.85 21.3906 156.68 22.5706 156.68 24.0206C156.68 25.4706 157.85 26.6506 159.29 26.6506C160.73 26.6506 161.9 25.4706 161.9 24.0206C161.9 22.5706 160.74 21.3906 159.29 21.3906Z" fill="#FF5722"/>
<path d="M136.96 21.3906C135.52 21.3906 134.35 22.5706 134.35 24.0206C134.35 25.4706 135.52 26.6506 136.96 26.6506C138.4 26.6506 139.57 25.4706 139.57 24.0206C139.57 22.5706 138.41 21.3906 136.96 21.3906Z" fill="#FF5722"/>
<path d="M24.94 5.24828C26.38 5.24828 27.55 4.06828 27.55 2.61828C27.55 1.16828 26.38 -0.0117188 24.94 -0.0117188C23.5 -0.0117188 22.33 1.16828 22.33 2.61828C22.33 4.06828 23.5 5.24828 24.94 5.24828Z" fill="#FF5722"/>
<path d="M2.61 5.25C4.05 5.25 5.22 4.07 5.22 2.62C5.22 1.17 4.04 0 2.61 0C1.18 0 0 1.18 0 2.63C0 4.08 1.17 5.26 2.61 5.26V5.25Z" fill="#FF5722"/>
<path d="M158.92 5.26C160.362 5.26 161.53 4.08251 161.53 2.63C161.53 1.17749 160.362 0 158.92 0C157.479 0 156.31 1.17749 156.31 2.63C156.31 4.08251 157.479 5.26 158.92 5.26Z" fill="#FF5722"/>
<path d="M91.9299 5.24828C93.3699 5.24828 94.5399 4.06828 94.5399 2.61828C94.5399 1.16828 93.3699 -0.0117188 91.9299 -0.0117188C90.4899 -0.0117188 89.3199 1.16828 89.3199 2.61828C89.3199 4.06828 90.4899 5.24828 91.9299 5.24828Z" fill="#FF5722"/>
<path d="M114.26 5.24828C115.7 5.24828 116.87 4.06828 116.87 2.61828C116.87 1.16828 115.7 -0.0117188 114.26 -0.0117188C112.82 -0.0117188 111.65 1.16828 111.65 2.61828C111.65 4.06828 112.82 5.24828 114.26 5.24828Z" fill="#FF5722"/>
<path d="M136.59 5.24828C138.03 5.24828 139.2 4.06828 139.2 2.61828C139.2 1.16828 138.03 -0.0117188 136.59 -0.0117188C135.15 -0.0117188 133.98 1.16828 133.98 2.61828C133.98 4.06828 135.15 5.24828 136.59 5.24828Z" fill="#FF5722"/>
<path d="M47.27 5.24828C48.71 5.24828 49.88 4.06828 49.88 2.61828C49.88 1.16828 48.71 -0.0117188 47.27 -0.0117188C45.83 -0.0117188 44.66 1.16828 44.66 2.61828C44.66 4.06828 45.83 5.24828 47.27 5.24828Z" fill="#FF5722"/>
<path d="M181.25 5.24828C182.69 5.24828 183.86 4.06828 183.86 2.61828C183.86 1.16828 182.7 -0.0117188 181.25 -0.0117188C179.8 -0.0117188 178.64 1.16828 178.64 2.61828C178.64 4.06828 179.81 5.24828 181.25 5.24828Z" fill="#FF5722"/>
<path d="M69.6 5.24828C71.04 5.24828 72.21 4.06828 72.21 2.61828C72.21 1.16828 71.04 -0.0117188 69.6 -0.0117188C68.16 -0.0117188 66.99 1.16828 66.99 2.61828C66.99 4.06828 68.16 5.24828 69.6 5.24828Z" fill="#FF5722"/>
</g>
<defs>
<clipPath id="clip0_1156_1078">
<rect width="183.86" height="176.35" fill="white"/>
</clipPath>
</defs>
</svg>
