<svg width="1440" height="1354" viewBox="0 0 1440 1354" fill="none" xmlns="http://www.w3.org/2000/svg">
<g opacity="0.2" clip-path="url(#clip0_1156_1028)">
<path d="M-619.126 1246.95C-623.071 1223.68 -609.65 881.905 -485.31 598.925C-373.696 345.267 -114.144 200.698 189.633 383.011C515.119 578.405 795.873 598.053 1022.25 541.056C1245.67 484.546 1394.25 314.275 1460.97 205.7C1605.79 -28.9318 1819.72 116.2 1744.58 424.908C1709.12 568.511 1615.65 608.66 1453.68 623.561C1284.38 639.136 1034.25 606.075 687.308 673.45C352.717 738.682 -23.8087 895.346 -235.534 1094.76C-460.861 1307.16 -586.092 1450 -619.126 1246.95Z" fill="url(#paint0_linear_1156_1028)"/>
</g>
<defs>
<linearGradient id="paint0_linear_1156_1028" x1="1636.47" y1="1062.32" x2="-567.86" y2="379.041" gradientUnits="userSpaceOnUse">
<stop stop-color="#5D50C6"/>
<stop offset="1" stop-color="#F85E9F"/>
</linearGradient>
<clipPath id="clip0_1156_1028">
<rect width="2506.2" height="958.638" fill="white" transform="translate(-757.527 407.875) rotate(-9.36634)"/>
</clipPath>
</defs>
</svg>
