<svg width="20" height="20" viewBox="0 0 20 20" fill="none" xmlns="http://www.w3.org/2000/svg">
<path fill-rule="evenodd" clip-rule="evenodd" d="M8.7044 1.51898C8.034 1.51898 7.46373 1.9848 7.30365 2.61265H12.6863C12.5263 1.9848 11.956 1.51898 11.2856 1.51898H8.7044ZM14.2071 2.61264H16.1881C18.2891 2.61264 20 4.34428 20 6.47085C20 6.47085 19.94 7.3711 19.92 8.6248C19.918 8.724 19.8699 8.8212 19.7909 8.88C19.3097 9.2354 18.8694 9.5291 18.8294 9.5493C17.1686 10.6632 15.2386 11.447 13.1826 11.8369C13.0485 11.8632 12.9165 11.7934 12.8484 11.6739C12.2721 10.6754 11.1956 10.0253 9.995 10.0253C8.8024 10.0253 7.71586 10.6683 7.12256 11.6678C7.05353 11.7853 6.92346 11.8531 6.7904 11.8278C4.75138 11.4369 2.82141 10.6541 1.17059 9.5594L0.21011 8.8911C0.13007 8.8405 0.08004 8.7493 0.08004 8.6481C0.05003 8.1316 0 6.47085 0 6.47085C0 4.34428 1.71086 2.61264 3.81191 2.61264H5.78289C5.97299 1.1443 7.2036 0 8.7044 0H11.2856C12.7864 0 14.017 1.1443 14.2071 2.61264ZM19.6598 10.8152L19.6198 10.8355C17.5988 12.1924 15.1676 13.0937 12.6163 13.4684C12.2561 13.519 11.8959 13.2861 11.7959 12.9216C11.5758 12.0912 10.8654 11.5443 10.015 11.5443H10.005H9.985C9.1346 11.5443 8.4242 12.0912 8.2041 12.9216C8.1041 13.2861 7.74387 13.519 7.38369 13.4684C4.83242 13.0937 2.4012 12.1924 0.38019 10.8355C0.37019 10.8254 0.27014 10.7646 0.1901 10.8152C0.10005 10.8659 0.10005 10.9874 0.10005 10.9874L0.17009 16.1519C0.17009 18.2785 1.87094 20 3.97199 20H16.018C18.1191 20 19.8199 18.2785 19.8199 16.1519L19.9 10.9874C19.9 10.9874 19.9 10.8659 19.8099 10.8152C19.7599 10.7849 19.6999 10.795 19.6598 10.8152ZM10.7454 15.0583C10.7454 15.4836 10.4152 15.8177 9.995 15.8177C9.5848 15.8177 9.2446 15.4836 9.2446 15.0583V13.7519C9.2446 13.3367 9.5848 12.9924 9.995 12.9924C10.4152 12.9924 10.7454 13.3367 10.7454 13.7519V15.0583Z" fill="#F85E9F"/>
</svg>
